<svg width="273" height="310" viewBox="0 0 273 310" fill="none" xmlns="http://www.w3.org/2000/svg">
<path d="M232.432 94.45C232.432 94.45 181.452 41.3724 140.507 42.2235C99.5618 43.0746 -4.9353 148.643 0.181398 192.06C5.2981 235.477 84.6296 295.076 124.727 307.848C164.825 320.62 256.519 241.012 270.593 185.252C284.667 129.491 232.432 94.45 232.432 94.45Z" fill="#D0E8DB"/>
<path d="M158.155 226.421C158.155 226.421 180.279 177.957 185.482 170.478C190.685 162.999 206.63 144.127 209.569 138.599C212.508 133.071 218 119.726 218 119.726C218 119.726 194.575 138.599 185.482 154.207C176.389 169.816 155.228 227.674 155.228 227.674L158.155 226.421Z" fill="white" stroke="#263238" stroke-linecap="round" stroke-linejoin="round"/>
<path d="M170.596 194.168C176.618 178.788 183.434 162.553 187.577 155.448C193.081 146.017 204.149 135.19 211.665 128.374C210.159 131.77 208.557 135.287 207.389 137.491C205.775 140.55 199.416 148.583 193.816 155.664C189.625 160.964 185.662 165.974 183.47 169.117C181.278 172.261 175.931 182.991 170.596 194.168Z" fill="#92E3A9"/>
<g opacity="0.25">
<path d="M184.205 161.903L186.927 164.481L189.143 161.65L185.879 158.567C185.349 159.543 184.795 160.687 184.205 161.903Z" fill="#022F2E"/>
<path d="M175.605 183.823L177.255 180.511L176.183 180.246C175.726 181.366 175.256 182.498 174.798 183.63L175.605 183.823Z" fill="#022F2E"/>
<path d="M197.164 142.766C196.357 143.669 195.562 144.572 194.755 145.488L198.814 149.294L201.042 146.427L197.164 142.766Z" fill="#022F2E"/>
<path d="M206.22 133.444L208.689 134.937C209.171 133.926 209.689 132.806 210.219 131.65L208.942 130.867C208.063 131.698 207.148 132.553 206.22 133.444Z" fill="#022F2E"/>
</g>
<path d="M149.05 226.421C149.05 226.421 156.203 125.591 155.228 98.9148C154.252 72.2381 143.184 41.3341 141.896 34.8306C140.786 29.8713 139.374 24.9844 137.668 20.1975C137.668 20.1975 136.368 80.0424 139.619 104.768C142.871 129.494 138.319 157.134 137.993 171.129C137.668 185.123 134.38 224.47 134.38 224.47L149.05 226.421Z" fill="#022F2E" stroke="#022F2E" stroke-linecap="round" stroke-linejoin="round"/>
<path d="M134.465 224.47C134.465 224.47 155.601 123.629 163.081 97.2891C170.56 70.9496 188.457 43.2974 191.383 34.5055C194.31 25.7137 201.138 9.1416 201.138 9.1416C201.138 9.1416 201.138 41.0091 193.009 56.9549C184.88 72.9007 170.897 100.866 166.995 112.898C163.093 124.929 149.098 188.688 145.196 204.297C141.294 219.905 141.583 226.421 141.583 226.421L134.465 224.47Z" fill="white" stroke="#263238" stroke-linecap="round" stroke-linejoin="round"/>
<path d="M137.235 222.748C140.39 207.777 158.6 121.75 165.357 97.9393C170.174 80.8012 179.508 63.2054 186.289 50.3548C189.793 43.6947 192.563 38.4437 193.623 35.2762C194.683 32.1087 196.357 27.6164 197.995 23.4011C197.128 33.7225 195.177 47.3078 190.769 55.919C180.869 75.3333 168.283 100.854 164.598 112.223C162.021 120.16 155.168 150.124 149.652 174.2C146.677 187.159 144.112 198.359 142.763 203.779C141.061 210.178 139.896 216.708 139.282 223.302L137.235 222.748Z" fill="#92E3A9"/>
<g opacity="0.25">
<path d="M168.958 87.124C168.525 88.2561 168.115 89.3882 167.754 90.5324L173.113 91.9897C173.619 90.8897 174.137 89.7817 174.667 88.6656L168.958 87.124Z" fill="#022F2E"/>
<path d="M164.381 113.018L161.827 111.609C161.538 112.813 161.237 114.018 160.936 115.222L163.345 116.559C163.742 115.198 164.079 113.994 164.381 113.018Z" fill="#022F2E"/>
<path d="M193.707 35.0232L196.429 36.2878C196.634 35.0835 196.826 33.7948 196.995 32.5664L194.911 31.5908C194.466 32.7831 194.056 33.9875 193.707 35.0232Z" fill="#022F2E"/>
<path d="M192.455 52.1373C192.876 51.0414 193.262 49.8972 193.659 48.7169L188.36 46.4407C187.818 47.4764 187.264 48.5483 186.674 49.6563L192.455 52.1373Z" fill="#022F2E"/>
<path d="M176.738 69.0706L182.76 71.9731C183.302 70.8892 183.831 69.8052 184.373 68.7333L178.352 65.8308C177.822 66.9027 177.268 67.9746 176.738 69.0706Z" fill="#022F2E"/>
</g>
<path d="M138.645 223.82C138.97 221.543 159.119 157.134 168.573 135.347C178.027 113.56 201.416 85.2574 201.741 84.2818C202.066 83.3063 197.189 109.321 192.636 118.1C188.084 126.88 175.775 147.704 166.947 167.877C158.119 188.05 148.4 219.592 148.075 221.543C148.032 223.202 148.366 224.849 149.05 226.361L138.645 223.82Z" fill="#022F2E" stroke="#022F2E" stroke-linecap="round" stroke-linejoin="round"/>
<path d="M103.512 1C103.512 1 103.512 1.81897 103.512 3.26421C103.319 12.7185 102.91 49.1144 107.125 59.5562C112.003 71.5999 112.978 79.0669 117.856 98.9149C122.734 118.763 123.396 177.307 124.046 182.51C124.697 187.713 133.476 226.746 133.476 226.746H144.858C144.858 226.746 133.151 106.394 127.997 87.5336C122.842 68.6732 113.592 36.1313 110.991 26.7614C108.39 17.3914 103.512 1 103.512 1Z" fill="white" stroke="#263238" stroke-linecap="round" stroke-linejoin="round"/>
<path d="M135.368 224.337C132.248 210.427 126.877 186.051 126.395 182.185C126.251 180.98 126.07 176.09 125.853 169.888C125.167 150.148 123.878 113.427 120.169 98.3126C118.868 93.0375 117.844 88.6777 116.953 84.7876C114.472 74.0808 112.967 67.6254 109.329 58.6288C106.8 52.3902 105.837 34.8667 105.716 17.1023C106.764 20.7154 107.812 24.3285 108.631 27.3153C109.703 31.2415 111.919 39.1663 114.496 48.4399C118.109 61.447 122.505 77.1278 125.54 88.1839C130.201 105.045 140.366 206.597 142.112 224.349L135.368 224.337Z" fill="#92E3A9"/>
<g opacity="0.33">
<path d="M118.338 62.0374L111.521 64.4461C111.919 65.6504 112.292 66.7464 112.642 67.8905L119.302 65.4818C118.976 64.3618 118.651 63.2056 118.338 62.0374Z" fill="#022F2E"/>
<path d="M106.367 38.2631L111.245 36.6011L110.269 33.1084L106.174 34.5175C106.222 35.7941 106.295 37.0346 106.367 38.2631Z" fill="#022F2E"/>
<path d="M115.279 51.0655C115.026 50.1863 114.786 49.3192 114.545 48.4641L114.292 47.5247L107.547 50.8608C107.74 52.2097 107.945 53.4622 108.186 54.5702L115.279 51.0655Z" fill="#022F2E"/>
<path d="M127.829 99.7942L120.807 101.276C121.024 102.396 121.229 103.576 121.433 104.889L128.383 103.419C128.202 102.131 128.009 100.926 127.829 99.7942Z" fill="#022F2E"/>
<path d="M124.83 85.5706C124.517 84.3662 124.18 83.2221 123.842 81.9575L117.158 85.7754C117.435 86.9797 117.712 88.1841 118.013 89.3885L124.83 85.5706Z" fill="#022F2E"/>
</g>
<path d="M128.756 226.746C128.756 226.746 123.361 139.574 123.361 113.897C123.361 88.2202 142.438 53.414 145.316 48.3436C148.195 43.2733 160.431 17.5962 160.431 17.5962C160.431 17.5962 150.351 65.9153 145.316 84.8359C140.282 103.756 138.837 132.818 136.681 148.667C134.525 164.517 133.791 202.394 133.791 211.511C133.791 220.628 133.441 226.722 133.441 226.722L128.756 226.746Z" fill="white" stroke="#263238" stroke-linecap="round" stroke-linejoin="round"/>
<path d="M131.021 224.337C130.178 210.463 125.77 136.901 125.77 113.897C125.77 88.3526 145.196 53.426 147.448 49.5359C148.652 47.4885 151.218 42.2495 153.952 36.6492C150.591 52.3059 145.931 73.286 143.028 84.2096C139.415 97.566 137.657 116.089 136.211 130.963C135.573 137.454 135.007 143.585 134.321 148.366C132.153 164.372 131.418 202.683 131.418 211.535C131.418 217.256 131.273 221.784 131.177 224.337H131.021Z" fill="#92E3A9"/>
<g opacity="0.25">
<path d="M133.092 80.4038C132.658 81.6082 132.249 82.7282 131.888 83.8965C134.315 84.1124 136.728 84.4703 139.114 84.9683C140.267 85.3789 141.386 85.8782 142.462 86.4618C142.643 85.703 142.835 84.9443 143.028 84.2096L143.377 82.8848C142.324 82.3361 141.229 81.8729 140.101 81.4998C137.791 80.9856 135.449 80.6195 133.092 80.4038Z" fill="#022F2E"/>
<path d="M133.79 152.642L127.01 151.172C127.07 152.377 127.13 153.653 127.19 154.906L133.465 156.267C133.562 155.002 133.682 153.786 133.79 152.642Z" fill="#022F2E"/>
<path d="M125.77 115.981C125.77 117.185 125.77 118.39 125.83 119.763C127.387 119.14 129 118.669 130.647 118.353C131.261 118.438 133.839 119.257 137.187 120.389C137.307 119.184 137.44 117.98 137.572 116.703C135.441 115.928 133.265 115.28 131.057 114.764C129.245 114.912 127.464 115.322 125.77 115.981Z" fill="#022F2E"/>
<path d="M130.431 100.083C133.462 100.965 136.425 102.068 139.295 103.383C139.475 102.179 139.656 100.914 139.849 99.6979C136.966 98.3826 133.976 97.3149 130.912 96.5063C129.979 96.425 129.04 96.425 128.106 96.5063C127.817 97.7107 127.54 98.915 127.299 100.18C128.338 100.05 129.386 100.018 130.431 100.083Z" fill="#022F2E"/>
<path d="M144.003 55.8709L149.23 58.0027L150.025 54.3896L145.69 52.6191C145.196 53.5706 144.63 54.6545 144.003 55.8709Z" fill="#022F2E"/>
<path d="M139.921 64.1689C139.403 65.2649 138.885 66.4091 138.355 67.5773L146.786 68.9021C147.063 67.6977 147.327 66.5656 147.604 65.3733L139.921 64.1689Z" fill="#022F2E"/>
<path d="M126.324 135.479C126.324 136.684 126.42 137.888 126.48 139.093C128.997 139.454 131.972 139.948 135.212 140.538C135.332 139.333 135.453 138.129 135.573 136.925C132.358 136.359 129.154 135.853 126.324 135.479Z" fill="#022F2E"/>
</g>
<path d="M121.398 226.096C121.398 226.096 107.74 179.908 104.814 165.878C101.887 151.847 104.488 110.585 103.838 103.106C103.188 95.6269 97.6597 74.8035 97.6597 74.8035C97.6597 74.8035 107.415 90.7492 110.992 97.9032C114.569 105.057 124.987 132.059 126.287 146.367C127.588 160.675 125.962 172.068 126.287 179.872C126.613 187.677 129.901 226.06 129.901 226.06L121.398 226.096Z" fill="white" stroke="#263238" stroke-linecap="round" stroke-linejoin="round"/>
<path d="M123.204 223.687C120.699 215.172 109.727 177.632 107.174 165.42C105.283 156.399 105.777 135.238 106.138 119.798C106.319 111.85 106.463 105.575 106.234 102.937C105.681 98.5711 104.876 94.2403 103.826 89.9663C105.777 93.3626 107.631 96.6746 108.8 99.0111C112.172 105.743 122.566 132.565 123.842 146.62C124.441 154.294 124.506 162 124.035 169.683C123.866 173.621 123.71 177.018 123.842 180.005C124.119 186.677 126.456 214.847 127.202 223.687H123.204Z" fill="#92E3A9"/>
<g opacity="0.25">
<path d="M115.713 115.981C115.291 114.776 114.87 113.68 114.508 112.584L106.283 115.342C106.283 116.547 106.283 117.848 106.198 119.184L115.713 115.981Z" fill="#022F2E"/>
<path d="M118.603 124.484L105.994 126.302C105.994 127.507 105.994 128.711 105.921 129.915L119.699 127.928C119.338 126.808 118.977 125.64 118.603 124.484Z" fill="#022F2E"/>
<path d="M112.786 108.128C112.317 106.924 111.859 105.804 111.425 104.756L106.391 106.177C106.391 107.261 106.391 108.526 106.391 109.935L112.786 108.128Z" fill="#022F2E"/>
<path d="M123.878 180.005C123.878 179.15 123.878 178.234 123.878 177.307L110.28 177.825C110.581 179.029 110.907 180.173 111.232 181.438L123.962 180.956C123.902 180.583 123.89 180.27 123.878 180.005Z" fill="#022F2E"/>
<path d="M124.468 189.098H113.292L114.304 192.711H124.733C124.637 191.458 124.553 190.254 124.468 189.098Z" fill="#022F2E"/>
<path d="M124.312 154.087L106.126 156.014C106.199 157.274 106.283 158.479 106.379 159.627L124.373 157.712C124.373 156.532 124.349 155.315 124.312 154.087Z" fill="#022F2E"/>
<path d="M123.626 144.789C123.469 143.657 123.276 142.453 123.036 141.176L105.753 142.26C105.753 143.464 105.753 144.669 105.753 145.873L123.626 144.789Z" fill="#022F2E"/>
</g>
<path d="M120.747 222.194C120.747 222.194 113.918 177.957 104.813 165.914C95.7083 153.87 62.2029 124.315 59.6014 120.377L57 116.474C57 116.474 72.6568 152.256 83.0263 163.962C93.3959 175.669 93.1069 178.608 102.212 193.241C107.811 202.385 112.177 212.23 115.195 222.519L115.845 225.12L121.373 226.096L120.747 222.194Z" fill="white" stroke="#263238" stroke-linecap="round" stroke-linejoin="round"/>
<path d="M117.833 223.073L117.556 221.977C114.501 211.441 110.045 201.363 104.308 192.012C101.297 187.195 99.3699 183.702 97.6597 180.631C94.2319 174.015 89.9299 167.89 84.8693 162.421C79.1245 155.954 71.6213 141.634 66.2017 130.53L72.079 136.118C82.8219 146.319 97.5392 160.289 102.947 167.431C111.582 178.849 118.351 222.182 118.423 222.615L118.519 223.193L117.833 223.073Z" fill="#92E3A9"/>
<g opacity="0.25">
<path d="M94.8894 158.374L85.7964 163.469C86.6515 164.468 87.4464 165.396 88.2051 166.275L97.4908 161.072C96.6477 160.205 95.7926 159.302 94.8894 158.374Z" fill="#022F2E"/>
<path d="M72.175 136.202L69.8506 137.876C70.3926 138.948 70.9586 140.032 71.5246 141.116L74.8487 138.707L72.175 136.202Z" fill="#022F2E"/>
<path d="M85.6155 149.077L83.002 146.535L77.1367 151.232C77.775 152.304 78.4134 153.352 79.0396 154.352L85.6155 149.077Z" fill="#022F2E"/>
<path d="M112.317 192.638L106.174 195.192C106.785 196.252 107.375 197.311 107.945 198.371L113.172 196.191C112.895 195.011 112.606 193.819 112.317 192.638Z" fill="#022F2E"/>
<path d="M106.259 173.525L96.624 178.8L97.6237 180.583C97.8645 181.028 98.1295 181.486 98.3944 181.968L107.62 176.897C107.162 175.705 106.765 174.585 106.259 173.525Z" fill="#022F2E"/>
</g>
<path d="M155.228 227.722C155.228 227.722 175.076 180.884 178.002 162.337C180.929 143.79 181.615 118.751 182.23 111.272C182.844 103.793 184.831 96.6388 186.457 93.387C188.083 90.1352 192.635 77.7302 192.635 77.7302C192.635 77.7302 176.051 102.456 170.523 114.813C164.995 127.169 155.553 150.944 152.301 169.142C149.049 187.339 149.049 226.385 149.049 226.385L155.228 227.722Z" fill="white" stroke="#263238" stroke-linecap="round" stroke-linejoin="round"/>
<path d="M151.47 224.47C151.47 216.365 151.904 185.087 154.674 169.599C158.468 148.33 170.331 121.087 172.739 115.836C175.497 110.097 178.564 104.513 181.929 99.1077C180.897 103.027 180.204 107.029 179.857 111.067C179.676 113.078 179.508 116.27 179.291 120.304C178.689 131.505 177.786 148.45 175.678 161.963C173.161 177.957 157.504 216.16 153.843 224.952L151.47 224.47Z" fill="#92E3A9"/>
<g opacity="0.25">
<path d="M164.742 197.179L166.007 193.771C163.598 193.205 161.25 192.687 159.323 192.314C157.155 191.88 154.794 191.531 152.482 191.242C152.41 192.446 152.349 193.65 152.289 194.855C154.445 195.132 156.637 195.469 158.624 195.854C160.394 196.204 162.514 196.673 164.742 197.179Z" fill="#022F2E"/>
<path d="M175.606 162.048L157.047 159.061C156.734 160.265 156.445 161.41 156.156 162.578L174.908 165.601C175.197 164.324 175.414 163.132 175.606 162.048Z" fill="#022F2E"/>
<path d="M174.714 111.753C176.4 111.982 178.075 112.247 179.616 112.56H179.712C179.712 112.006 179.785 111.501 179.833 111.055C179.893 110.344 179.965 109.646 180.05 108.947C178.918 108.731 177.725 108.538 176.521 108.357C175.883 109.537 175.268 110.67 174.714 111.753Z" fill="#022F2E"/>
<path d="M153.59 177.427C153.469 178.592 153.349 179.796 153.229 181.041L169.463 184.003C169.861 182.799 170.246 181.691 170.668 180.547L153.59 177.427Z" fill="#022F2E"/>
<path d="M173.955 122.713L170.089 121.894L168.68 125.303C170.162 125.604 171.679 125.917 173.197 126.254C174.991 126.639 176.918 127.097 178.857 127.603C178.941 126.338 179.002 125.11 179.074 123.93C177.315 123.484 175.581 123.111 173.955 122.713Z" fill="#022F2E"/>
<path d="M161.515 144.392L177.376 147.62C177.497 146.415 177.605 145.211 177.713 144.007L162.707 140.959C162.31 142.08 161.912 143.236 161.515 144.392Z" fill="#022F2E"/>
<path d="M152.964 206.019L151.832 205.778C151.832 206.983 151.759 208.259 151.723 209.391L152.193 209.5C154.445 209.982 156.878 210.584 159.323 211.234C159.756 210.138 160.202 209.006 160.647 207.85C158.022 207.199 155.384 206.537 152.964 206.019Z" fill="#022F2E"/>
</g>
<path d="M129.864 228.372C129.864 228.372 127.913 180.884 135.067 155.508C142.221 130.132 148.724 117.125 151.928 109.321C155.132 101.516 167.224 87.5337 167.224 87.5337C167.224 87.5337 159.407 107.37 159.407 115.499C159.407 123.629 162.659 130.144 158.432 155.183C154.204 180.222 146.508 194.168 145.798 198.769C145.087 203.37 138.644 226.746 138.644 226.746L129.864 228.372Z" fill="white" stroke="#263238" stroke-linecap="round" stroke-linejoin="round"/>
<path d="M132.176 225.481C131.911 214.991 131.393 177.379 137.379 156.158C141.285 142.001 146.257 128.159 152.253 114.752C152.988 113.066 153.638 111.573 154.204 110.236C155.866 106.738 157.884 103.421 160.226 100.336C158.528 105.828 157.034 111.741 157.034 115.487C157.077 117.747 157.246 120.002 157.54 122.243C158.251 128.675 159.154 136.696 156.095 154.761C153.99 167.133 150.57 179.246 145.894 190.892C144.83 193.326 143.996 195.854 143.401 198.443C142.919 201.804 138.728 217.34 136.717 224.663L132.176 225.481Z" fill="#92E3A9"/>
<path opacity="0.25" d="M145.16 163.794C145.038 163.758 144.913 163.734 144.786 163.722L135.778 163.011C135.545 164.183 135.328 165.388 135.127 166.624L144.317 167.347C147.243 168.214 150.339 169.153 152.844 169.96C153.145 168.816 153.446 167.648 153.735 166.444C151.627 165.745 148.845 164.89 145.16 163.794Z" fill="#022F2E"/>
<path opacity="0.25" d="M149.002 182.498C143.606 182.606 136.814 182.787 134.862 183.052C134.453 183.052 133.863 183.196 133.14 183.317C133.044 184.521 132.948 185.786 132.863 187.026C133.947 186.834 134.814 186.701 135.332 186.629C136.91 186.424 142.474 186.255 147.701 186.135C148.123 185.003 148.556 183.786 149.002 182.498Z" fill="#022F2E"/>
<path opacity="0.25" d="M132.128 204.441L141.86 205.321C142.185 204.02 142.474 202.815 142.727 201.768C139.848 201.503 136.356 201.177 132.225 200.816C132.189 202.045 132.153 203.261 132.128 204.441Z" fill="#022F2E"/>
<path opacity="0.25" d="M156.913 149.607L153.096 149.028C148.35 148.294 143.461 147.559 140.052 147.186C139.703 148.39 139.342 149.498 138.98 150.703C142.401 151.04 147.724 151.907 152.542 152.593L156.372 153.184C156.58 151.923 156.761 150.731 156.913 149.607Z" fill="#022F2E"/>
<path opacity="0.25" d="M148.327 134.901C146.99 134.589 145.611 134.495 144.244 134.624C143.798 135.829 143.353 137.129 142.895 138.466C144.401 138.117 145.966 138.117 147.472 138.466C151.005 139.442 154.456 140.695 157.793 142.212C157.913 140.863 158.022 139.586 158.094 138.394C154.929 136.989 151.665 135.821 148.327 134.901Z" fill="#022F2E"/>
<path opacity="0.25" d="M155.926 124.146C156.543 124.15 157.158 124.194 157.769 124.279C157.697 123.58 157.625 122.906 157.552 122.255L157.372 120.618C156.878 120.618 156.396 120.533 155.926 120.533C153.775 120.58 151.63 120.782 149.507 121.135C148.989 122.34 148.447 123.677 147.881 125.062C150.536 124.551 153.225 124.245 155.926 124.146Z" fill="#022F2E"/>
<path opacity="0.25" d="M152.421 114.367C153.802 114.221 155.198 114.327 156.54 114.68L157.082 114.897C157.135 113.656 157.276 112.42 157.504 111.199C156.365 110.872 155.184 110.71 153.999 110.718C153.529 111.826 153.012 113.042 152.421 114.367Z" fill="#022F2E"/>
<path d="M135.392 228.047C135.392 228.047 136.043 197.143 132.791 186.087C129.539 175.031 124.011 167.552 120.097 157.182C116.183 146.812 105.139 131.168 105.139 131.168C105.139 131.168 112.293 148.029 113.268 153.28C114.244 158.531 116.52 166.287 116.52 168.937C116.52 171.586 114.569 183.895 118.471 193.024C122.373 202.153 125.312 212.547 125.637 217.111C125.962 221.676 125.962 227.517 125.962 227.517L135.392 228.047Z" fill="white" stroke="#263238" stroke-linecap="round" stroke-linejoin="round"/>
<path d="M128.347 225.144C128.347 223.001 128.238 219.676 128.033 216.81C127.66 211.631 124.42 200.708 120.687 191.964C117.7 184.991 118.435 175.693 118.784 171.213C118.868 170.153 118.928 169.394 118.928 168.804C118.612 165.676 118.023 162.581 117.17 159.555C116.628 157.315 116.074 155.002 115.701 153.051C116.532 154.761 117.278 156.411 117.844 157.941C119.539 162.259 121.469 166.48 123.625 170.587C126.421 175.75 128.723 181.166 130.502 186.761C133.08 195.541 133.104 217.918 133.044 225.469L128.347 225.144Z" fill="#92E3A9"/>
<g opacity="0.25">
<path d="M117.17 159.603C117.399 160.59 117.628 161.554 117.845 162.457L119.555 162.156C119.073 161.048 118.603 159.904 118.146 158.736L117.001 158.928C117.062 159.157 117.11 159.386 117.17 159.603Z" fill="#022F2E"/>
<path d="M118.447 178.102L126.601 176.717C126.071 175.585 125.529 174.453 124.975 173.333L118.568 174.416C118.507 175.536 118.459 176.777 118.447 178.102Z" fill="#022F2E"/>
<path d="M130.478 186.761C130.406 186.544 130.333 186.328 130.273 186.111L119.35 187.737C119.611 188.926 119.961 190.093 120.397 191.229L131.152 189.64C130.948 188.568 130.719 187.604 130.478 186.761Z" fill="#022F2E"/>
<path d="M132.598 203.61C132.525 202.406 132.453 201.202 132.369 199.997L124.288 201.479C124.673 202.683 125.046 203.815 125.384 204.947L132.598 203.61Z" fill="#022F2E"/>
</g>
<path d="M158.685 275.427H115.773L111.763 225.06H162.527L158.685 275.427Z" fill="white" stroke="#263238" stroke-linecap="round" stroke-linejoin="round"/>
<path d="M166.115 230.468H109.221L107.848 214.907H167.5L166.115 230.468Z" fill="white" stroke="#263238" stroke-linecap="round" stroke-linejoin="round"/>
</svg>
